<?xml version="1.0" standalone="no"?><!DOCTYPE svg PUBLIC "-//W3C//DTD SVG 1.1//EN" "http://www.w3.org/Graphics/SVG/1.1/DTD/svg11.dtd"><svg t="1692174854274" class="icon" viewBox="0 0 1024 1024" version="1.1" xmlns="http://www.w3.org/2000/svg" p-id="2165" xmlns:xlink="http://www.w3.org/1999/xlink" width="200" height="200"><path d="M915.8 852.9L766.9 706.7c47.4-62.8 75.9-140.7 75.9-225.5 0-207-167.8-374.9-374.9-374.9-207.1 0.1-374.9 167.9-374.9 375s167.8 374.9 374.9 374.9c95.4 0 182.2-35.9 248.4-94.6L865.4 908c14.7 14.4 37.8 13.8 51.7-1.4 13.9-15.2 13.3-39.3-1.3-53.7zM467.9 790c-170.5 0-308.7-138.2-308.7-308.7s138.2-308.7 308.7-308.7 308.7 138.2 308.7 308.7S638.4 790 467.9 790z m0 0" fill="#2c2c2c" p-id="2166"></path></svg>